<svg width="136.781" height="22.08" viewBox="0 0 136.781 22.08" xmlns="http://www.w3.org/2000/svg"><g id="svgGroup" stroke-linecap="round" fill-rule="evenodd" font-size="9pt" stroke="#967bb6 " stroke-width="0.25mm" fill="#967bb6 " style="stroke:#967bb6 ;stroke-width:0.25mm;fill:#967bb6 "><path d="M 0 15.663 L 1.104 13.823 Q 1.932 14.513 2.967 14.95 A 5.37 5.37 0 0 0 4.202 15.297 A 7.387 7.387 0 0 0 5.382 15.387 A 6.436 6.436 0 0 0 6.428 15.307 Q 7.366 15.153 8.004 14.697 Q 8.935 14.032 8.969 12.918 A 2.787 2.787 0 0 0 8.97 12.834 A 2.746 2.746 0 0 0 8.892 12.169 A 2.258 2.258 0 0 0 8.694 11.65 A 1.862 1.862 0 0 0 8.418 11.269 Q 8.126 10.951 7.632 10.642 A 6.098 6.098 0 0 0 7.624 10.638 A 7.384 7.384 0 0 0 7.056 10.321 Q 6.349 9.963 5.29 9.568 A 20.795 20.795 0 0 1 4.23 9.124 Q 3.294 8.699 2.645 8.269 A 5.044 5.044 0 0 1 1.934 7.706 Q 1.54 7.326 1.297 6.897 A 3.06 3.06 0 0 1 1.231 6.773 A 3.833 3.833 0 0 1 0.881 5.699 A 5.273 5.273 0 0 1 0.805 4.784 Q 0.805 3.634 1.438 2.703 A 3.951 3.951 0 0 1 2.462 1.682 A 5.379 5.379 0 0 1 3.301 1.207 Q 4.531 0.644 6.279 0.644 Q 7.705 0.644 8.844 0.932 Q 9.982 1.219 11.063 1.748 L 10.258 3.611 Q 9.476 3.151 8.43 2.841 Q 7.383 2.53 6.233 2.53 A 6.253 6.253 0 0 0 5.306 2.594 Q 4.816 2.668 4.416 2.826 A 2.902 2.902 0 0 0 3.841 3.128 A 2.277 2.277 0 0 0 3.343 3.58 A 1.693 1.693 0 0 0 2.967 4.669 A 2.407 2.407 0 0 0 3.034 5.249 A 1.969 1.969 0 0 0 3.22 5.727 A 1.59 1.59 0 0 0 3.466 6.055 Q 3.742 6.344 4.22 6.624 A 7.591 7.591 0 0 0 4.73 6.894 Q 5.252 7.147 5.991 7.434 A 29.904 29.904 0 0 0 6.463 7.613 Q 7.733 8.085 8.628 8.592 A 8.166 8.166 0 0 1 9.303 9.016 Q 10.161 9.619 10.609 10.307 A 3.273 3.273 0 0 1 10.787 10.614 A 4.043 4.043 0 0 1 11.187 11.963 A 5.096 5.096 0 0 1 11.224 12.581 Q 11.224 14.076 10.477 15.134 Q 9.729 16.192 8.407 16.744 A 7.02 7.02 0 0 1 6.702 17.205 A 9.206 9.206 0 0 1 5.382 17.296 A 10.894 10.894 0 0 1 3.594 17.155 A 8.751 8.751 0 0 1 2.323 16.847 A 8.787 8.787 0 0 1 1.089 16.346 A 6.54 6.54 0 0 1 0 15.663 Z M 16.284 17.02 L 14.214 17.02 L 14.214 0 L 16.284 0 L 16.284 6.969 Q 16.928 6.026 17.917 5.405 A 4.042 4.042 0 0 1 19.556 4.828 A 5.197 5.197 0 0 1 20.24 4.784 Q 22.264 4.784 23.265 6.003 A 4.233 4.233 0 0 1 24.093 7.7 Q 24.265 8.394 24.265 9.223 L 24.265 17.02 L 22.195 17.02 L 22.195 9.453 A 4.514 4.514 0 0 0 22.118 8.593 Q 21.98 7.884 21.597 7.383 A 1.937 1.937 0 0 0 20.181 6.613 A 2.755 2.755 0 0 0 19.918 6.601 Q 18.86 6.601 17.906 7.349 Q 16.951 8.096 16.284 9.108 L 16.284 17.02 Z M 68.77 12.834 L 68.77 5.06 L 70.84 5.06 L 70.84 12.558 Q 70.84 13.494 71.106 14.138 A 2.331 2.331 0 0 0 71.438 14.709 A 1.933 1.933 0 0 0 72.614 15.403 A 2.946 2.946 0 0 0 73.186 15.456 Q 74.129 15.456 75.014 15.077 Q 75.9 14.697 76.59 14.053 L 76.59 5.06 L 78.66 5.06 L 78.66 13.915 Q 78.66 14.689 78.921 15.048 A 0.752 0.752 0 0 0 79.086 15.214 Q 79.511 15.525 80.017 15.525 L 79.58 17.135 Q 77.441 17.135 76.935 15.433 Q 76.13 16.261 75.072 16.779 Q 74.014 17.296 72.795 17.296 Q 71.76 17.296 70.84 16.859 A 3.321 3.321 0 0 1 69.573 15.792 A 4.201 4.201 0 0 1 69.345 15.445 A 3.735 3.735 0 0 1 68.962 14.503 Q 68.842 14.05 68.797 13.511 A 8.136 8.136 0 0 1 68.77 12.834 Z M 127.742 16.054 L 128.616 14.329 A 4.268 4.268 0 0 0 129.339 14.818 Q 129.694 15.011 130.116 15.166 A 6.909 6.909 0 0 0 130.123 15.168 A 5.537 5.537 0 0 0 131.873 15.499 A 6.317 6.317 0 0 0 132.066 15.502 A 6.236 6.236 0 0 0 132.775 15.464 Q 133.508 15.38 133.96 15.107 A 1.78 1.78 0 0 0 134.009 15.076 A 1.713 1.713 0 0 0 134.362 14.779 A 1.162 1.162 0 0 0 134.665 13.984 A 1.638 1.638 0 0 0 134.593 13.49 A 1.429 1.429 0 0 0 134.424 13.133 Q 134.182 12.765 133.538 12.409 A 6.546 6.546 0 0 0 133.079 12.18 Q 132.593 11.959 131.905 11.718 A 23.822 23.822 0 0 0 131.675 11.638 A 10.722 10.722 0 0 1 130.664 11.237 Q 130.177 11.013 129.792 10.763 A 4.447 4.447 0 0 1 129.156 10.27 Q 128.317 9.476 128.317 8.073 A 2.788 2.788 0 0 1 129.225 6 A 4.016 4.016 0 0 1 129.525 5.738 Q 130.732 4.784 132.871 4.784 Q 134.002 4.784 134.888 5.018 A 5.814 5.814 0 0 1 134.918 5.026 A 8.917 8.917 0 0 1 135.869 5.337 A 7.155 7.155 0 0 1 136.528 5.635 L 135.953 7.337 A 5.642 5.642 0 0 0 135.109 6.931 A 6.944 6.944 0 0 0 134.538 6.739 Q 133.745 6.509 132.779 6.509 A 4.745 4.745 0 0 0 132.104 6.554 Q 131.394 6.656 130.962 6.992 A 2.144 2.144 0 0 0 130.65 7.285 Q 130.488 7.473 130.411 7.674 A 1.042 1.042 0 0 0 130.341 8.05 A 1.132 1.132 0 0 0 130.685 8.867 A 1.629 1.629 0 0 0 130.824 8.993 Q 131.307 9.384 132.71 9.844 A 15.583 15.583 0 0 1 133.874 10.281 Q 134.981 10.751 135.616 11.277 A 3.438 3.438 0 0 1 135.884 11.523 Q 136.781 12.443 136.781 13.823 Q 136.781 15.375 135.573 16.297 A 3.822 3.822 0 0 1 135.482 16.365 Q 134.391 17.146 132.678 17.272 A 9.297 9.297 0 0 1 131.997 17.296 A 9.198 9.198 0 0 1 130.649 17.201 A 7.118 7.118 0 0 1 129.547 16.951 A 7.103 7.103 0 0 1 128.664 16.61 Q 128.143 16.365 127.742 16.054 Z M 90.459 6.256 L 90.459 0 L 92.529 0 L 92.529 14.122 Q 92.529 14.844 92.819 15.15 A 0.682 0.682 0 0 0 92.955 15.26 Q 93.38 15.525 93.886 15.525 L 93.449 17.135 Q 91.291 17.135 90.793 15.43 A 3.083 3.083 0 0 1 90.781 15.387 Q 90.282 16.09 89.393 16.68 A 7.445 7.445 0 0 1 89.367 16.698 A 3.482 3.482 0 0 1 88.214 17.177 Q 87.758 17.281 87.23 17.294 A 6.191 6.191 0 0 1 87.078 17.296 Q 85.606 17.296 84.387 16.537 A 5.219 5.219 0 0 1 82.653 14.745 A 6.353 6.353 0 0 1 82.455 14.387 A 6.333 6.333 0 0 1 81.86 12.56 A 8.561 8.561 0 0 1 81.742 11.109 A 7.806 7.806 0 0 1 81.946 9.289 A 6.431 6.431 0 0 1 82.466 7.866 A 6.277 6.277 0 0 1 83.529 6.35 A 5.563 5.563 0 0 1 84.398 5.612 Q 85.606 4.784 87.055 4.784 A 4.978 4.978 0 0 1 88.038 4.876 A 3.667 3.667 0 0 1 89.113 5.267 Q 89.976 5.75 90.459 6.256 Z M 104.328 6.256 L 104.328 0 L 106.398 0 L 106.398 14.122 Q 106.398 14.844 106.688 15.15 A 0.682 0.682 0 0 0 106.824 15.26 Q 107.249 15.525 107.755 15.525 L 107.318 17.135 Q 105.16 17.135 104.662 15.43 A 3.083 3.083 0 0 1 104.65 15.387 Q 104.151 16.09 103.262 16.68 A 7.445 7.445 0 0 1 103.236 16.698 A 3.482 3.482 0 0 1 102.083 17.177 Q 101.627 17.281 101.099 17.294 A 6.191 6.191 0 0 1 100.947 17.296 Q 99.475 17.296 98.256 16.537 A 5.219 5.219 0 0 1 96.522 14.745 A 6.353 6.353 0 0 1 96.324 14.387 A 6.333 6.333 0 0 1 95.729 12.56 A 8.561 8.561 0 0 1 95.611 11.109 A 7.806 7.806 0 0 1 95.815 9.289 A 6.431 6.431 0 0 1 96.335 7.866 A 6.277 6.277 0 0 1 97.398 6.35 A 5.563 5.563 0 0 1 98.267 5.612 Q 99.475 4.784 100.924 4.784 A 4.978 4.978 0 0 1 101.907 4.876 A 3.667 3.667 0 0 1 102.982 5.267 Q 103.845 5.75 104.328 6.256 Z M 43.631 22.08 L 41.561 22.08 L 41.561 8.119 Q 41.561 7.337 41.182 7.003 A 1.315 1.315 0 0 0 40.54 6.699 A 1.838 1.838 0 0 0 40.204 6.67 L 40.641 5.06 A 4.031 4.031 0 0 1 41.613 5.168 Q 42.27 5.332 42.693 5.742 A 2.335 2.335 0 0 1 43.286 6.739 A 2.628 2.628 0 0 1 43.468 6.5 Q 43.671 6.26 43.988 5.975 A 8.877 8.877 0 0 1 44.034 5.934 A 4.347 4.347 0 0 1 44.655 5.478 A 5.881 5.881 0 0 1 45.322 5.129 A 3.9 3.9 0 0 1 46.37 4.833 A 5.034 5.034 0 0 1 47.081 4.784 Q 48.461 4.784 49.668 5.509 A 5.136 5.136 0 0 1 51.319 7.111 A 6.317 6.317 0 0 1 51.612 7.601 A 5.907 5.907 0 0 1 52.186 9.221 Q 52.348 10.009 52.348 10.925 A 8.411 8.411 0 0 1 52.186 12.611 A 6.464 6.464 0 0 1 51.612 14.271 A 6.405 6.405 0 0 1 50.707 15.613 A 5.297 5.297 0 0 1 49.692 16.503 Q 48.507 17.296 47.127 17.296 Q 46.069 17.296 45.149 16.871 A 6.981 6.981 0 0 1 44.363 16.448 Q 43.977 16.205 43.671 15.93 A 4.295 4.295 0 0 1 43.631 15.893 L 43.631 22.08 Z M 57.155 16.031 L 57.155 17.02 L 55.223 17.02 L 55.223 0 L 57.293 0 L 57.293 6.302 A 3.568 3.568 0 0 1 57.727 5.886 Q 57.961 5.695 58.253 5.508 A 7.662 7.662 0 0 1 58.639 5.279 A 3.814 3.814 0 0 1 59.842 4.859 A 5.158 5.158 0 0 1 60.743 4.784 Q 62.123 4.784 63.331 5.509 A 5.136 5.136 0 0 1 64.981 7.111 A 6.317 6.317 0 0 1 65.274 7.601 A 5.907 5.907 0 0 1 65.848 9.221 Q 66.01 10.009 66.01 10.925 A 7.663 7.663 0 0 1 65.852 12.509 A 6.382 6.382 0 0 1 65.55 13.524 Q 65.09 14.697 64.319 15.537 Q 63.549 16.376 62.583 16.836 A 4.601 4.601 0 0 1 60.889 17.287 A 4.418 4.418 0 0 1 60.605 17.296 Q 59.57 17.296 58.662 16.917 A 6.963 6.963 0 0 1 57.902 16.547 Q 57.521 16.33 57.217 16.083 A 4.194 4.194 0 0 1 57.155 16.031 Z M 125.948 11.891 L 117.576 11.891 Q 117.769 13.455 118.62 14.381 A 3.446 3.446 0 0 0 118.749 14.513 A 3.253 3.253 0 0 0 120.503 15.389 A 4.605 4.605 0 0 0 121.302 15.456 Q 122.337 15.456 123.165 15.237 Q 123.993 15.019 124.752 14.674 L 125.235 16.445 A 9.377 9.377 0 0 1 124.238 16.819 A 11.928 11.928 0 0 1 123.372 17.055 A 8.95 8.95 0 0 1 122.201 17.243 A 11.966 11.966 0 0 1 121.049 17.296 Q 118.473 17.296 116.966 15.651 Q 115.631 14.193 115.479 11.695 A 10.839 10.839 0 0 1 115.46 11.04 A 8.132 8.132 0 0 1 115.651 9.241 A 6.633 6.633 0 0 1 116.139 7.832 A 5.668 5.668 0 0 1 117.292 6.203 A 5.264 5.264 0 0 1 118.036 5.601 A 4.841 4.841 0 0 1 120.396 4.802 A 6.027 6.027 0 0 1 120.865 4.784 Q 122.426 4.784 123.506 5.396 A 3.959 3.959 0 0 1 123.728 5.532 Q 124.867 6.279 125.442 7.544 A 6.483 6.483 0 0 1 126 9.813 A 7.69 7.69 0 0 1 126.017 10.327 A 17.297 17.297 0 0 1 125.95 11.867 A 15.651 15.651 0 0 1 125.948 11.891 Z M 30.88 16.988 A 6.259 6.259 0 0 0 32.867 17.296 A 7.067 7.067 0 0 0 33.39 17.277 A 5.809 5.809 0 0 0 35.915 16.514 Q 37.26 15.732 38.042 14.317 A 6.039 6.039 0 0 0 38.652 12.675 A 7.862 7.862 0 0 0 38.824 10.994 A 7.945 7.945 0 0 0 38.712 9.635 A 5.933 5.933 0 0 0 38.03 7.694 Q 37.237 6.302 35.892 5.543 A 5.715 5.715 0 0 0 34.824 5.077 A 6.38 6.38 0 0 0 32.867 4.784 A 7.205 7.205 0 0 0 32.504 4.793 A 6.019 6.019 0 0 0 29.831 5.543 Q 28.474 6.302 27.692 7.705 A 5.985 5.985 0 0 0 27.06 9.451 A 8.051 8.051 0 0 0 26.91 11.04 A 8.009 8.009 0 0 0 26.971 12.041 A 6.314 6.314 0 0 0 27.68 14.295 Q 28.451 15.709 29.808 16.503 A 5.649 5.649 0 0 0 30.88 16.988 Z M 112.585 17.02 L 110.515 17.02 L 110.515 5.06 L 112.585 5.06 L 112.585 17.02 Z M 32.867 15.456 A 4.311 4.311 0 0 0 34.069 15.297 A 3.22 3.22 0 0 0 35.696 14.226 A 4.325 4.325 0 0 0 36.574 12.365 A 6.234 6.234 0 0 0 36.708 11.04 A 4.917 4.917 0 0 0 36.426 9.364 A 4.603 4.603 0 0 0 36.202 8.844 A 4.415 4.415 0 0 0 35.242 7.563 A 4.179 4.179 0 0 0 34.834 7.233 Q 33.971 6.624 32.867 6.624 A 4.427 4.427 0 0 0 31.665 6.778 A 3.228 3.228 0 0 0 30.038 7.82 A 4.112 4.112 0 0 0 29.193 9.516 Q 29.042 10.127 29.027 10.844 A 7.56 7.56 0 0 0 29.026 10.994 Q 29.026 12.19 29.532 13.214 A 4.471 4.471 0 0 0 30.344 14.373 A 4.054 4.054 0 0 0 30.9 14.847 Q 31.763 15.456 32.867 15.456 Z M 57.293 8.142 L 57.293 14.536 A 4.138 4.138 0 0 0 58.128 15.039 A 5.014 5.014 0 0 0 58.535 15.203 A 4.476 4.476 0 0 0 59.953 15.455 A 5.068 5.068 0 0 0 60.053 15.456 A 3.908 3.908 0 0 0 61.207 15.291 A 3.392 3.392 0 0 0 62.042 14.904 A 3.669 3.669 0 0 0 63.227 13.66 A 4.519 4.519 0 0 0 63.399 13.34 A 4.8 4.8 0 0 0 63.824 11.949 A 6.32 6.32 0 0 0 63.894 10.994 Q 63.894 9.614 63.399 8.625 Q 62.905 7.636 62.088 7.107 Q 61.272 6.578 60.283 6.578 A 3.39 3.39 0 0 0 58.989 6.822 A 3.232 3.232 0 0 0 58.501 7.073 A 5.417 5.417 0 0 0 57.918 7.488 Q 57.539 7.801 57.293 8.142 Z M 43.631 8.142 L 43.631 14.03 Q 44.229 14.651 45.011 15.054 Q 45.793 15.456 46.713 15.456 Q 48.277 15.456 49.255 14.226 A 4.322 4.322 0 0 0 50.058 12.545 Q 50.21 11.927 50.229 11.203 A 7.947 7.947 0 0 0 50.232 10.994 Q 50.232 9.614 49.738 8.625 Q 49.243 7.636 48.427 7.107 Q 47.61 6.578 46.621 6.578 A 3.39 3.39 0 0 0 45.327 6.822 A 3.232 3.232 0 0 0 44.839 7.073 A 5.417 5.417 0 0 0 44.256 7.488 Q 43.877 7.801 43.631 8.142 Z M 90.459 14.007 L 90.459 8.073 Q 90.066 7.577 89.394 7.145 A 6.473 6.473 0 0 0 89.24 7.049 Q 88.458 6.578 87.515 6.578 A 3.438 3.438 0 0 0 86.375 6.762 A 3.079 3.079 0 0 0 85.583 7.176 A 3.839 3.839 0 0 0 84.394 8.59 A 4.583 4.583 0 0 0 84.306 8.774 Q 83.858 9.775 83.858 11.04 A 5.694 5.694 0 0 0 83.994 12.309 A 4.675 4.675 0 0 0 84.341 13.306 A 4.187 4.187 0 0 0 85.04 14.344 A 3.708 3.708 0 0 0 85.664 14.881 Q 86.503 15.456 87.538 15.456 Q 88.389 15.456 89.159 15.054 Q 89.93 14.651 90.459 14.007 Z M 104.328 14.007 L 104.328 8.073 Q 103.935 7.577 103.263 7.145 A 6.473 6.473 0 0 0 103.109 7.049 Q 102.327 6.578 101.384 6.578 A 3.438 3.438 0 0 0 100.244 6.762 A 3.079 3.079 0 0 0 99.452 7.176 A 3.839 3.839 0 0 0 98.263 8.59 A 4.583 4.583 0 0 0 98.175 8.774 Q 97.727 9.775 97.727 11.04 A 5.694 5.694 0 0 0 97.863 12.309 A 4.675 4.675 0 0 0 98.21 13.306 A 4.187 4.187 0 0 0 98.909 14.344 A 3.708 3.708 0 0 0 99.533 14.881 Q 100.372 15.456 101.407 15.456 Q 102.258 15.456 103.028 15.054 Q 103.799 14.651 104.328 14.007 Z M 117.553 10.212 L 124.108 10.212 A 5.602 5.602 0 0 0 124.015 9.157 Q 123.901 8.563 123.647 8.098 A 2.857 2.857 0 0 0 123.234 7.521 Q 122.36 6.578 120.819 6.578 A 3.123 3.123 0 0 0 119.643 6.793 A 2.881 2.881 0 0 0 118.611 7.51 Q 117.737 8.441 117.553 10.212 Z M 110.547 2.596 A 1.374 1.374 0 0 0 111.55 3.013 A 1.88 1.88 0 0 0 111.894 2.983 A 1.299 1.299 0 0 0 112.608 2.611 A 1.329 1.329 0 0 0 112.936 2.043 A 1.727 1.727 0 0 0 112.999 1.564 A 1.668 1.668 0 0 0 112.999 1.545 A 1.394 1.394 0 0 0 112.574 0.54 Q 112.148 0.115 111.55 0.115 A 1.901 1.901 0 0 0 111.169 0.151 A 1.302 1.302 0 0 0 110.492 0.506 A 1.285 1.285 0 0 0 110.154 1.111 A 1.837 1.837 0 0 0 110.101 1.564 A 1.378 1.378 0 0 0 110.214 2.12 A 1.528 1.528 0 0 0 110.526 2.576 A 1.718 1.718 0 0 0 110.547 2.596 Z"/></g></svg>